# xmcd
#
# Track frame offsets:
#	150
#	13639
#	25773
#	39541
#	53882
#	62640
#	75318
#	87408
#	98338
#	110527
#
# Disc length: 1621 seconds
#
# Revision: 1
# Processed by: cddbd v1.5.2PL0 Copyright (c) Steve Scherf et al.
# Submitted via: audiograbber 1.83.01
#
DISCID=6b06530a
DTITLE=Various Artist - Pure Country Moods CD 3
DYEAR=2004
DGENRE=Country and Western
TTITLE0=Glen Campbell - Rhinestone Cowboy
TTITLE1=Johnny Cash - Ring Of Fire
TTITLE2=Kenny Rogers - Daytime Friends
TTITLE3=Glen Campbell - Wichita Lineman
TTITLE4=Mitch Miller - Yellow Rose Of Texas
TTITLE5=Dr. Hook - When You're In Love With A Beautiful Woman
TTITLE6=Patsy Cline - Crazy
TTITLE7=Willie Nelson - On The Road Again
TTITLE8=Roy Orbison - Crying
TTITLE9=Linda Ronstadt - Its So Easy
EXTD=
EXTT0=
EXTT1=
EXTT2=
EXTT3=
EXTT4=
EXTT5=
EXTT6=
EXTT7=
EXTT8=
EXTT9=
PLAYORDER=
